<?xml version="1.0" encoding="UTF-8"?>
<svg id="Camada_1" xmlns="http://www.w3.org/2000/svg" version="1.1" viewBox="0 0 320 104.1">
  <!-- Generator: Adobe Illustrator 30.3.0, SVG Export Plug-In . SVG Version: 2.1.3 Build 182)  -->
  <defs>
    <style>
      .st0 {
        fill-rule: evenodd;
      }

      .st0, .st1 {
        fill: #232c34;
      }

      .st2 {
        fill: #f86a04;
      }
    </style>
  </defs>
  <path class="st2" d="M14.1,19.5h9.7v8.6h-9.7v-8.6Z"/>
  <path class="st1" d="M41.2,28.1h-10.9v-8.6h21.2v35c-.1,2.4-.7,4.6-1.7,6.8-1.1,2.3-2.7,4.3-4.7,6-2,1.7-4.4,2.9-7,3.7-2.6.8-3.8.9-6.6.8-2.8-.1-5.3-1.1-7.7-2.3-2.4-1.3-4.4-3-6-5-1.6-2.1-2.7-4.3-3.3-6.8-.5-2.1-.6-4.3-.2-6.5l10,2c0,.9,0,1.7.2,2.6.3,1.2.8,2.3,1.6,3.3.7,1,1.7,1.8,2.9,2.4,2.4,1.2,4.7,1.1,5.9.7,1.2-.4,2.4-1,3.3-1.8,1-.8,1.7-1.8,2.3-2.9.5-1,.7-2.1.8-3.3v-26.1Z"/>
  <path class="st1" d="M92.7,71h-34.7V19.5h34.7v8.7h-24.9v12.7h24.9v8.6h-24.9v12.7h24.9v8.7Z"/>
  <path class="st1" d="M122.8,33.1l-8.5,12.7-7-10.6c-.8-1.3-2.3-2.1-3.8-2.1h-8.1l13.2,18.7-13.1,19.1h10.5l8.4-12.9,7.1,10.8c.8,1.3,2.3,2.1,3.8,2.1h8.2l-13.4-19.1,13.5-18.7h-10.7Z"/>
  <path class="st0" d="M157.2,32.4c3.3,0,6.3.8,8.8,2.5h0c2.6,1.7,4.5,4,5.9,7,1.4,3,2.1,6.4,2.1,10.2s-.7,7.2-2.1,10.2c-1.4,3-3.4,5.3-5.9,6.9-2.6,1.7-5.5,2.5-8.8,2.5s-4.4-.4-6.2-1.2c-.8-.4-1.6-1-2.4-1.7-.8-.7-2.4-.2-2.4.9v14.8h-9.2v-51.4h9.2v4.8c1.5-2.1,3.1-3.5,4.8-4.3,1.7-.8,3.7-1.2,6.1-1.2ZM147.1,52.1c0,6.2,4.1,11.2,9.1,11.2s9.1-5,9.1-11.2-4.1-11.2-9.1-11.2-9.1,5-9.1,11.2Z"/>
  <path class="st1" d="M303.8,53.2c-1.4-1.5-3.1-2.6-5.1-3.2-2-.7-4.5-1.3-7.7-1.9-3.1-.6-5.3-1.2-6.7-1.8-1.4-.6-2.1-1.6-2.1-3s.5-2.1,1.6-2.8c1.1-.7,2.6-1.1,4.4-1.1s3.7.5,5.2,1.4c1.5.9,2.4,2.3,2.9,4.3h8.7c-.7-4.1-2.5-7.3-5.5-9.5-3-2.3-6.7-3.4-11.2-3.4s-7.8,1-10.7,2.9c-2.8,1.9-4.2,4.7-4.2,8.4s.7,4.7,2.1,6.2c1.4,1.5,3,2.6,5,3.2s4.4,1.3,7.4,1.9c3.1.6,5.4,1.2,6.8,1.9,1.5.7,2.3,1.8,2.3,3.3s-.6,2.5-1.9,3.2c-1.2.8-2.9,1.2-4.9,1.2s-4.4-.5-5.9-1.6c-1.6-1.1-2.7-2.7-3.3-4.7h-9.1c.6,4.5,2.6,7.9,6.1,10.1,3.5,2.3,7.5,3.4,12.3,3.4s8.8-1.1,11.5-3.3c2.8-2.2,4.2-5.2,4.2-8.9s-.7-4.8-2.2-6.3h0Z"/>
  <path class="st1" d="M251.9,19.5h9.2v13.6h7.4v7.3h-7.4v19.5c0,1.2.2,2,.6,2.6.4.6,1.3.9,2.6.9h4.2v7.5h-7.6c-6,0-8.9-2.8-8.9-8.3v-22.3h-5.7v-7.3h5.7v-13.6Z"/>
  <path class="st1" d="M235.2,33.5c-1.7.8-3.3,2.2-4.7,4.1v-4.5h-9.2v37.8h9.2v-17.5c0-2.5.2-4.5.8-6.1.5-1.6,1.3-3,2.3-4,1.6-1.5,3.9-2.3,6.8-2.3h2.1v-8.8h-1.1c-2.4,0-4.4.4-6.2,1.2h0Z"/>
  <path class="st0" d="M206.8,34.5c-2.9-1.4-6.1-2.1-9.5-2.1s-7.7.9-10.7,2.8c-2.9,1.9-5,4.4-6.5,7.4-1.4,3-2.1,6.2-2.1,9.7s.8,7.1,2.4,10c1.6,2.9,3.9,5.2,6.9,6.9,3,1.7,6.4,2.5,10.2,2.5s8.8-1.2,11.9-3.7c3.1-2.5,5.3-5.8,6.5-9.8h-9.4c-.6,1.7-1.7,3-3.2,4.1-1.5,1-3.3,1.5-5.4,1.5s-3.7-.5-5.3-1.4c-1.5-1-2.7-2.4-3.6-4.1-.8-1.4-1.3-2.9-1.4-4.5h28.9v-2c0-4.4-.9-8-2.7-10.9-1.8-3-4.1-5.2-7-6.5h0ZM189.5,43.6c-.8,1-1.3,2.2-1.5,3.5h19.1c-.2-1.4-.7-2.6-1.4-3.5-.9-1.3-2-2.3-3.4-3-1.4-.7-3-1.1-4.7-1.1s-3.3.3-4.7,1c-1.4.7-2.5,1.7-3.3,3Z"/>
</svg>